<svg xmlns="http://www.w3.org/2000/svg" xmlns:xlink="http://www.w3.org/1999/xlink" version="1.1" id="Layer_1" x="0px" y="0px" width="100px" height="100px" viewBox="0 0 100 100" enable-background="new 0 0 100 100" xml:space="preserve">
<path d="M98.675,37.793c0.19-3.95-1.245-10.998-9.64-21.491C76.961,1.209,62.855,0.374,58.221,0.1l-0.19-0.011  C57.054,0.03,56.061,0,55.076,0C44.898,0,36.928,3.132,33.985,4.473C30.37,4.662,21.302,6.171,11.724,15.749  C-0.874,28.347-1.08,38.121,0.966,44.102c1.765,5.16,4.774,11.195,4.901,11.449l0.019,0.037l0.019,0.037  c1.301,2.5,4.787,5.404,10.406,5.624c1.852,1.179,4.986,2.7,8.831,2.7c1.612,0,3.186-0.265,4.704-0.787  c1.527,0.583,3.589,1.127,5.964,1.127c3.33,0,6.499-1.056,9.304-3.078c1.826,2.764,4.786,5.664,9.055,6.96  c1.769,1.925,4.271,4.327,6.52,5.323c0.714,0.599,2.3,2.603,3.388,4.296l0.457,0.71l0.659,0.527  c0.531,0.425,2.486,1.814,5.295,1.814c1.769,0,3.501-0.563,5.011-1.629c2.041-1.441,3.124-3.57,2.973-5.843  c-0.176-2.616-1.867-4.339-3.15-5.279c-0.171-0.236-0.343-0.479-0.509-0.723c0.049-0.06,0.098-0.119,0.146-0.179  c0.729,0.086,1.506,0.141,2.311,0.141c4.591,0,8.349-1.764,10.75-4.943c2.665-0.481,5.032-2.041,6.664-4.44  c2.378-3.497,4.048-6.958,4.117-7.104l0.179-0.371l0.116-0.395C99.508,48.672,101.123,42.45,98.675,37.793z M94.154,48.614  c0,0-1.545,3.218-3.733,6.437c-1.335,1.963-3.052,2.346-4.189,2.346c-0.728,0-1.218-0.157-1.218-0.157  c-1.492,3.959-4.817,4.941-7.748,4.941c-2.882,0-5.383-0.95-5.383-0.95c0.128,3.219-3.605,4.764-3.605,4.764  c0.645,2.316,3.477,5.922,3.477,5.922s2.961,1.545,0.772,3.09c-0.729,0.515-1.431,0.686-2.041,0.686  c-1.221,0-2.079-0.686-2.079-0.686s-3.476-5.407-5.535-6.18c-2.061-0.772-5.923-5.278-5.923-5.278  c-6.694-1.159-8.883-7.854-8.883-7.854c-0.354,0.064-0.796,0.089-1.261,0.089c-1.394,0-2.987-0.218-2.987-0.218  c-2.763,2.763-5.613,3.574-8.009,3.574c-3.409,0-5.895-1.643-5.895-1.643c-1.667,0.952-3.288,1.302-4.772,1.302  c-4.134,0-7.201-2.718-7.201-2.718c-0.328,0.021-0.643,0.032-0.944,0.032c-5.033,0-6.522-2.865-6.522-2.865  s-2.961-5.922-4.635-10.814c-1.674-4.892-0.901-12.616,9.527-23.044c2.958-2.958,5.833-5.026,8.435-6.47l0,0.001  c0,0,11.325-5.167,15.113,4.574l0.001,0.004l6.903,17.748l6.717-6.073l6.607,27.667l8.52-39.418l-6.301,5.04  c0,0,0.212-10.541,0.212-10.54c0,0-0.017-7.653,6.089-4.93L67.66,6.99c5.209,1.729,11.524,5.242,17.354,12.529  c10.814,13.518,8.239,19.568,8.239,19.568C96.214,41.662,94.154,48.614,94.154,48.614z"/>
</svg>